<svg width="112" height="112" viewBox="0 0 112 112" fill="none" xmlns="http://www.w3.org/2000/svg">
<g clip-path="url(#clip0)">
<path d="M86.5392 72.9992C87.4694 69.4276 87.9859 65.7876 87.9859 62.2223C87.9859 49.2769 81.3841 41.132 71.6277 37.2245C72.925 34.0885 73.6965 30.6663 73.6965 27.2689C73.6965 22.3503 72.1565 19.4974 69.6054 17.836C72.9997 16.3365 77.4361 13.1694 79.0228 11.5796C81.4525 9.14983 81.9472 5.70272 80.1241 3.87961C78.301 2.05649 74.857 2.54805 72.4241 4.98094C70.5232 6.88183 66.3637 12.852 65.5081 16.24C62.7579 15.6334 59.5037 15.5556 56.0005 15.5556C52.5005 15.5556 49.2432 15.6334 46.4961 16.2369C45.6405 12.8489 41.481 6.88183 39.5801 4.97783C37.1503 2.54805 33.7032 2.05338 31.8801 3.87649C30.0601 5.70272 30.5517 9.14672 32.9814 11.5796C34.5712 13.1694 39.0077 16.3365 42.3988 17.836C39.8445 19.4943 38.3045 22.3503 38.3045 27.2689C38.3045 30.6694 39.0761 34.0885 40.3734 37.2245C30.617 41.132 24.0152 49.2769 24.0152 62.2223C24.0152 65.7876 24.5348 69.4307 25.4619 72.9992V73.0707L25.4805 73.0614C29.2419 87.4378 39.9254 100.585 52.8957 102.43L52.8894 102.667C52.8894 107.822 54.2832 112 56.0005 112C57.721 112 59.1117 107.822 59.1117 102.667C59.1117 102.586 59.1054 102.514 59.1023 102.433C72.0725 100.589 82.7592 87.4409 86.5205 73.0645L86.5392 73.0738V72.9992Z" fill="#31373D"/>
<path d="M45.4971 59.1111H66.5033C61.9549 54.6808 58.3678 50.148 56.8402 46.6666H55.1602C53.6327 50.148 50.0455 54.6808 45.4971 59.1111ZM28.7655 71.5555C27.6424 72.1373 26.5411 72.6413 25.4615 73.0737C26.4571 76.8662 27.9473 80.5622 29.8202 84H82.1802C84.0686 80.5471 85.5321 76.8783 86.5389 73.0737C85.4129 72.6208 84.3092 72.1142 83.2318 71.5555H28.7655ZM39.9438 96.4444C44.6664 100.284 50.142 102.667 56.0002 102.667C61.8615 102.667 67.334 100.284 72.0598 96.4444H39.9438Z" fill="#FFCC4D"/>
<path d="M56 42.0155C56 50.2506 31.5529 68.7213 18.6667 68.7213C5.78044 68.7213 0 61.1208 0 52.8857C0 44.6537 5.78044 38.9013 18.6667 38.9013C31.556 38.9044 56 33.7866 56 42.0155ZM56 42.0155C56 50.2506 80.444 68.7213 93.3333 68.7213C106.223 68.7213 112 61.1208 112 52.8857C112 44.6537 106.223 38.9013 93.3333 38.9013C80.444 38.9013 56 33.7866 56 42.0155Z" fill="#CCD6DD"/>
<path d="M6.22229 59.1111C5.39717 59.1119 4.60552 58.7849 4.02149 58.2021C3.43746 57.6192 3.10889 56.8282 3.10806 56.0031C3.10724 55.178 3.43422 54.3863 4.01709 53.8023C4.59995 53.2183 5.39095 52.8897 6.21606 52.8889C6.3654 52.8889 21.613 52.6711 48.5147 40.712C48.8891 40.5379 49.2944 40.44 49.707 40.4242C50.1196 40.4083 50.5313 40.4747 50.9179 40.6196C51.3046 40.7644 51.6586 40.9848 51.9592 41.2678C52.2598 41.5509 52.5011 41.8909 52.669 42.2681C52.8368 42.6454 52.9279 43.0523 52.9369 43.4651C52.946 43.8779 52.8727 44.2883 52.7215 44.6725C52.5702 45.0568 52.344 45.407 52.056 45.7029C51.768 45.9988 51.424 46.2344 51.0441 46.396C22.7641 58.9649 6.88495 59.1111 6.22229 59.1111ZM105.778 59.1111C105.115 59.1111 89.2392 58.9649 60.9592 46.3991C60.2269 46.0505 59.6597 45.4296 59.3784 44.6689C59.0972 43.9082 59.1241 43.0677 59.4535 42.3265C59.7829 41.5854 60.3888 41.0022 61.1419 40.7012C61.895 40.4002 62.7359 40.4052 63.4854 40.7151C90.3903 52.6711 105.635 52.8889 105.787 52.8889C106.612 52.8901 107.403 53.2191 107.986 53.8034C108.568 54.3877 108.895 55.1795 108.894 56.0046C108.892 56.8298 108.563 57.6206 107.979 58.2032C107.395 58.7857 106.603 59.1123 105.778 59.1111Z" fill="#0F4699"/>
</g>
<defs>
<clipPath id="clip0">
<rect width="112" height="112" fill="white"/>
</clipPath>
</defs>
</svg>
