<svg width="172" height="172" viewBox="0 0 172 172" fill="none" xmlns="http://www.w3.org/2000/svg">
<path d="M96.0405 52.5557C96.0405 52.5557 103.499 31.0557 123.386 43.0001C123.386 43.0001 143.895 44.7918 144.826 51.0626C144.826 51.0626 125.871 54.9446 120.899 64.5001C115.928 74.0557 128.357 81.2224 108.159 101.827C108.159 101.827 98.5273 112.278 83.6111 112.278C83.6111 112.278 31.0556 119.445 23.8889 112.278" fill="#6A462F"/>
<path d="M24.1875 111.979C24.1875 111.979 83.6111 57.3335 102.722 59.7223C121.833 62.1112 107.5 91.3751 89.5833 101.827C71.6667 112.278 24.1875 111.979 24.1875 111.979Z" fill="#A57939"/>
<path d="M77.9375 132.882L88.3889 129" stroke="black" stroke-width="0.5" stroke-miterlimit="10" stroke-linecap="round" stroke-linejoin="round"/>
<path d="M102.364 70.4003C100.587 70.0563 100.133 71.6186 100.133 71.6186C98.4966 76.7954 92.8086 88.6681 75.0783 95.7058L75.0926 95.7273C75.0926 95.7273 73.2723 96.2122 74.0343 98.1807C74.6937 99.884 76.3755 99.5089 76.8222 99.3751C96.6547 91.4249 102.579 77.6076 104.168 72.2851C104.309 71.8121 104.132 70.7371 102.364 70.3979V70.4003Z" fill="black"/>
<path d="M75.5486 97.6459C75.5486 97.6459 95.5556 93.1667 102.722 69.2778" stroke="black" stroke-width="0.5" stroke-miterlimit="10" stroke-linecap="round" stroke-linejoin="round"/>
<path d="M97.9445 52.5557C97.9445 52.5557 105.111 31.0557 124.222 43.0001C124.222 43.0001 143.931 44.7918 144.826 51.0626C144.826 51.0626 126.611 54.9446 121.833 64.5001C117.056 74.0557 129 81.2224 109.59 101.827C109.59 101.827 100.333 112.278 86 112.278L83.6111 117.056L88.3889 129L102.722 131.389" stroke="black" stroke-width="0.5" stroke-miterlimit="10" stroke-linecap="round" stroke-linejoin="round"/>
<path d="M24.1875 111.979C24.1875 111.979 83.6111 57.3335 102.722 59.7223C121.833 62.1112 107.5 91.3751 89.5833 101.827C71.6667 112.278 24.1875 111.979 24.1875 111.979Z" stroke="black" stroke-width="0.5" stroke-miterlimit="10" stroke-linecap="round" stroke-linejoin="round"/>
</svg>
