<svg width="112" height="112" viewBox="0 0 112 112" fill="none" xmlns="http://www.w3.org/2000/svg">
<path d="M1.55679 46.9262C1.83679 46.9524 2.17804 46.8999 2.62429 46.7512C4.10304 46.2787 5.17054 45.2899 6.35179 44.3362C10.2193 41.2562 13.7893 38.9637 18.5668 37.6424C19.8093 37.3012 21.043 37.2487 22.2505 36.9162C24.6743 36.2249 23.8693 33.3462 22.8018 31.7012C21.288 29.3649 17.8843 30.9399 15.828 31.7712C10.7355 33.7924 5.47679 37.3099 2.36179 41.9299C1.48679 43.2424 -0.359463 46.8037 1.55679 46.9262Z" fill="#855C52"/>
<path d="M17.7447 2.85248C17.9722 3.00998 18.2084 3.28123 18.4622 3.66623C19.3022 4.96123 19.4947 6.42248 19.8184 7.89248C20.8509 12.7312 22.1634 16.7737 25.0334 20.8162C25.7597 21.8575 26.6959 22.68 27.4134 23.7125C28.8572 25.7775 26.3984 27.5012 24.5434 28.105C21.8922 28.945 20.2559 25.5762 19.1884 23.6337C16.5372 18.83 14.6909 12.775 15.1984 7.22748C15.3472 5.66123 16.1872 1.73248 17.7447 2.85248Z" fill="#855C52"/>
<path d="M100.126 89.8013C102.112 89.5388 105.324 91.2538 106.846 92.4788C107.712 93.1788 109.506 96.1625 110.565 95.4538C112.682 94.0538 109.515 90.4225 108.526 89.4513C106.697 87.6488 104.151 86.6338 101.692 86.0825L100.126 89.8013Z" fill="#855C52"/>
<path d="M99.898 77.9362C101.674 77.3062 103.354 76.2299 104.605 74.8299C105.227 74.1299 105.76 73.3162 106.084 72.4237C106.329 71.7237 106.329 70.1487 107.432 70.1662C109.225 70.2012 108.368 73.9637 108.062 74.8562C107.493 76.5012 106.557 78.2074 105.297 79.4237C104.325 80.3599 103.459 81.5762 101.972 81.4799C100.852 81.4099 98.3405 79.3799 99.583 78.1199C99.6355 78.0499 99.7492 77.9974 99.898 77.9362Z" fill="#855C52"/>
<path d="M30.5635 39.7163C30.4585 40.9238 30.4761 42.175 30.1611 43.2163C29.4261 45.64 28.096 47.6963 26.101 49.2625C24.8585 50.2425 22.1548 50.5838 22.2073 52.64C22.2598 54.2238 24.0885 54.9063 25.4273 54.95C29.4523 55.0988 32.9611 50.8638 34.6848 47.6963C35.1048 46.9088 35.4811 46.095 35.7786 45.255C36.1898 44.1088 38.6661 37.66 37.9923 36.9688C37.7736 36.7588 37.0561 36.5575 36.7761 36.4875C35.1136 36.05 33.0748 35.105 31.6748 36.5925C30.8961 37.4063 30.6685 38.535 30.5635 39.7163Z" fill="#855C52"/>
<path d="M44.9484 40.39C42.2972 43.015 39.9434 46.0687 38.3509 49.455C37.4934 51.275 36.7934 53.2 36.3909 55.1687C36.1809 56.1837 36.0409 57.2425 36.1634 58.275C36.4172 60.3137 38.2547 60.4625 39.7684 59.605C41.6409 58.5375 41.7109 56.42 42.5684 54.635C44.6509 50.295 47.7134 46.9612 50.8284 43.3825C51.7822 42.2975 52.8322 41.1337 52.4734 39.5675C51.5459 35.5512 46.4884 38.8587 44.9484 40.39Z" fill="#855C52"/>
<path d="M57.0671 50.7675C53.2783 52.1587 49.6208 54.1887 46.6896 56.9975C45.2196 58.4062 43.9508 60.0075 43.0146 61.81C42.5771 62.6587 42.1133 63.4025 42.1133 64.3563C42.1046 65.5288 42.2008 66.4912 43.4258 66.8675C47.4158 68.0837 49.6908 62.0287 52.4383 60.1212C55.1158 58.2662 58.0646 56.4112 61.2671 55.685C62.0108 55.5187 62.7021 55.4312 63.4021 55.0725C64.8983 54.3112 64.9508 53.0425 64.1371 51.66C62.8596 49.49 60.0858 49.6475 57.0671 50.7675Z" fill="#855C52"/>
<path d="M61.4587 63.4725C57.5387 64.4963 53.68 66.1588 50.4862 68.6875C48.5087 70.245 45.2537 73.1063 45.3325 75.8713C45.4375 79.45 49.9787 76.7638 51.335 75.6088C52.6387 74.4888 53.645 73.2113 55.1587 72.2838C57.11 71.0763 59.3062 70.3413 61.52 69.7638C62.5 69.5013 63.4887 69.2825 64.4775 69.0638C66.875 68.53 69.9637 68.4075 68.415 65.065C67.3475 62.7638 64.5737 62.6588 61.4587 63.4725Z" fill="#855C52"/>
<path d="M90.7198 93.5113C90.7023 94.7188 90.5623 95.97 90.7898 97.0375C91.2798 99.5138 92.4086 101.684 94.2461 103.434C95.1911 104.335 97.4748 105.796 96.9586 107.389C96.2498 109.559 92.9511 109.034 91.5423 108.159C88.9348 106.514 87.0623 103.845 85.8548 101.045C85.5048 100.231 85.2073 99.3825 84.9973 98.5075C84.6998 97.335 82.8448 90.685 83.6061 90.055C83.8336 89.8538 84.5686 89.7313 84.8486 89.6875C86.5636 89.425 88.6723 88.6638 89.9236 90.2825C90.6148 91.1838 90.7198 92.33 90.7198 93.5113Z" fill="#855C52"/>
<path d="M80.9987 91.4551C80.8587 95.1913 80.2024 98.9713 78.7849 102.445C78.0849 104.16 77.2274 105.84 76.1862 107.363C75.1624 108.859 74.3749 109.428 72.5462 109.331C68.1799 109.113 71.3037 104.886 72.1087 102.848C73.8937 98.3676 74.2787 93.8613 74.7862 89.1451C74.9524 87.7101 75.0924 86.1526 76.5012 85.3563C80.0887 83.3176 81.0687 89.2763 80.9987 91.4551Z" fill="#855C52"/>
<path d="M73.5687 85.4175C72.3174 89.25 70.4449 92.9775 67.7412 96.0137C66.6124 97.265 65.3524 98.4025 63.9349 99.3212C62.9024 99.995 61.4587 101.071 60.1462 100.992C59.0087 100.922 57.4512 99.82 57.4512 98.595C57.4512 97.3525 58.7374 96.3725 59.5687 95.6287C61.0124 94.325 62.5612 93.1087 63.6637 91.4812C65.5537 88.6637 67.8549 84.7525 68.4849 81.3837C68.6249 80.6312 68.6774 79.9575 69.0099 79.24C69.7274 77.7175 70.9699 77.6125 72.3874 78.3737C74.6187 79.5725 74.5749 82.355 73.5687 85.4175Z" fill="#855C52"/>
<path d="M68.9145 78.6273C66.1757 81.6199 62.9207 84.2624 59.1932 85.9161C57.1457 86.8086 54.8095 87.5436 52.552 87.5261C51.257 87.5261 49.2357 87.0274 49.0782 85.5136C48.737 82.1799 53.2432 82.0661 55.5357 81.3048C59.7007 79.9311 62.6145 76.5974 65.3707 73.3424C66.9457 71.4786 68.4945 68.8011 70.7432 71.7324C72.2745 73.7361 71.0757 76.2561 68.9145 78.6273Z" fill="#855C52"/>
<path d="M34.579 22.5313C35.139 21.4638 35.839 20.4225 36.1365 19.3725C36.8277 16.9313 36.8277 14.49 36.014 12.0925C35.419 10.3513 33.5027 8.55753 34.369 6.51878C35.6552 3.48253 39.514 7.54253 40.319 8.80253C42.0952 11.5238 42.6027 14.8663 42.3665 18.0688C42.2965 18.9525 42.174 19.845 41.9727 20.7113C41.6927 21.9013 40.2752 28.6563 39.3302 28.875C39.0415 28.945 38.3152 28.7175 38.0352 28.6213C36.4165 28.0788 34.1852 27.7725 33.8177 25.7688C33.599 24.6488 34.0277 23.5813 34.579 22.5313Z" fill="#855C52"/>
<path d="M46.6458 26.8712C47.2758 23.1962 48.4483 19.5212 50.3208 16.2837C51.1859 14.7678 52.1938 13.338 53.3308 12.0137C54.4508 10.7362 56.5246 9.30994 58.3183 10.2549C60.9346 11.6462 57.8196 15.3037 56.9796 16.7824C54.6083 20.9737 53.6196 25.3837 52.4558 29.9862C52.1058 31.3862 51.7558 32.9174 50.2596 33.5124C46.4271 35.0524 46.2696 29.0149 46.6458 26.8712Z" fill="#855C52"/>
<path d="M55.9725 30.9136C57.9325 27.3699 60.4788 24.0711 63.7075 21.5949C65.3175 20.3611 67.1025 19.3461 69.0275 18.7074C71.3988 17.9111 74.61 18.1386 73.2188 21.5599C72.1688 24.1674 68.7475 24.8936 66.84 26.8099C64.4513 29.2161 61.45 32.6286 60.1988 35.8136C59.9275 36.5136 59.735 37.1786 59.2713 37.8261C58.2913 39.1911 57.0313 39.0511 55.7888 38.0449C53.8463 36.4524 54.4238 33.7224 55.9725 30.9136Z" fill="#855C52"/>
<path d="M62.4914 38.9376C65.0376 35.7789 68.1264 32.9439 71.7401 31.0626C73.5426 30.1264 75.4939 29.4351 77.5064 29.1376C78.6439 28.9626 80.2101 29.2776 80.6651 30.4764C81.6364 33.0839 77.3576 34.7639 75.6689 35.4376C71.6001 37.0651 68.8964 40.5739 66.3501 43.9864C64.8801 45.9551 63.5064 48.7201 61.0914 45.9376C59.4376 44.0214 60.4701 41.4401 62.4914 38.9376Z" fill="#855C52"/>
<path d="M66.7963 48.8512C69.3426 45.6837 72.4313 42.8575 76.0451 40.9762C77.8563 40.04 79.7988 39.3487 81.8113 39.0512C82.9401 38.885 84.5151 39.1912 84.9701 40.39C85.9413 42.9975 81.6626 44.6775 79.9826 45.3512C75.9138 46.9875 73.2101 50.4875 70.6551 53.9C69.1851 55.86 67.8113 58.625 65.3963 55.8425C63.7426 53.9437 64.7751 51.3625 66.7963 48.8512Z" fill="#855C52"/>
<path d="M87.736 76.4313C90.2123 74.3225 92.4085 71.8988 93.9748 69.0463C95.2698 66.675 97.4223 61.915 95.9348 59.2638C93.7823 55.405 90.3435 63.7963 89.5648 64.96C87.6923 67.7775 84.9535 71.4088 82.0835 73.2725C81.436 73.6838 80.8235 73.9988 80.2985 74.585C79.161 75.8275 79.5373 77.0263 80.7798 78.05C82.7398 79.6338 85.2948 78.5225 87.736 76.4313Z" fill="#855C52"/>
<path d="M76.8861 68.355C80.2811 66.1413 83.4049 63.3326 85.6186 59.92C86.5636 58.4675 87.7274 56.595 87.9461 54.8363C88.0861 53.7075 87.7711 51.1875 86.4236 50.8813C83.7986 50.26 82.5386 53.8738 81.6549 55.5713C79.6336 59.465 75.8799 61.81 72.2486 64.0238C70.1311 65.275 67.2611 66.3775 69.7986 69.0638C71.5136 70.9013 74.1824 70.1138 76.8861 68.355Z" fill="#855C52"/>
<path d="M93.7035 75.3025C91.0523 75.4162 88.3573 75.74 86.0648 75.3462C80.526 74.41 78.566 68.7312 76.7285 64.19C74.9523 59.815 74.0685 55.1512 73.106 50.5487C72.546 47.9062 71.951 45.2637 71.1373 42.6912C69.1073 36.19 65.0998 30.6075 59.176 27.1425C56.0873 25.34 52.491 23.7387 49.0348 22.82C44.4585 21.6125 39.716 20.9562 35.026 20.4487C29.7585 19.88 23.931 20.2475 20.2473 24.5525C17.9023 27.2912 17.456 31.6837 18.7248 34.9912C21.761 42.8662 32.331 41.5975 39.0335 42.4462C42.236 42.8487 45.526 43.7675 48.186 45.6662C50.2335 47.1362 51.931 49.5425 52.876 51.87C55.6848 58.8525 56.411 66.2987 58.5898 73.255C60.0423 77.91 62.0285 82.39 65.3973 86.4938C71.6448 94.1237 80.2548 96.6175 89.8448 95.3488C93.4935 94.8587 97.0548 94.6925 100.319 92.7325C103.364 90.895 105.752 87.745 105.376 84.0438C105.201 82.2588 104.405 79.6513 103.25 78.2338C100.879 75.355 97.326 75.145 93.7035 75.3025Z" fill="#ED6C30"/>
<path d="M26.7132 37.3975C26.7132 37.3975 20.352 34.2125 22.0407 28.9712C23.7032 23.8 28.402 23.5375 28.402 23.5375L26.7132 37.3975Z" fill="#F79329"/>
<path d="M32.2783 26.7576C31.2108 30.4763 30.7208 38.6313 30.7208 38.6313L35.892 38.3338L36.382 30.1263L32.2783 26.7576Z" fill="#F79329"/>
<path d="M41.2656 31.7976L40.0056 38.8939L44.9493 40.3901L45.7631 34.4139L41.2656 31.7976Z" fill="#F79329"/>
<path d="M50.1899 36.5225L48.0549 41.895L52.5524 44.8875L54.4599 41.195L50.1899 36.5225Z" fill="#F79329"/>
<path d="M58.4767 45.3864L54.9592 47.8101L57.0154 53.4189L60.5329 52.1239L58.4767 45.3864Z" fill="#F79329"/>
<path d="M61.958 56.7351L57.7843 58.7389L59.0968 64.1726L62.6405 62.7726L61.958 56.7351Z" fill="#F79329"/>
<path d="M63.718 66.8674L60.498 68.7399L61.8367 74.0249L64.5405 72.1699L63.718 66.8674Z" fill="#F79329"/>
<path d="M65.9222 75.9675L63.2359 77.8925C63.2359 77.8925 66.1059 82.1363 66.4472 82.1363C66.7884 82.1363 68.3372 80.5525 68.3372 80.5525L65.9222 75.9675Z" fill="#F79329"/>
<path d="M70.5773 83.0637L68.696 85.4175L71.9948 88.2175L73.6573 85.6712L70.5773 83.0637Z" fill="#F79329"/>
</svg>
