<svg width="112" height="112" viewBox="0 0 112 112" fill="none" xmlns="http://www.w3.org/2000/svg">
<path d="M65.3799 46.0775C65.3799 46.0775 62.9124 44.1 60.8036 43.1287C59.4299 42.4987 57.1111 40.7925 55.1686 41.9387C54.2236 42.4987 53.4974 43.61 53.0599 45.5437C52.6224 47.4775 52.2636 49.6825 52.2636 49.6825C52.2636 49.6825 49.2274 44.8 46.8036 45.4562C44.5986 46.06 44.1611 52.9375 44.1611 52.9375C44.1611 52.9375 40.0224 46.9962 38.0886 47.705C36.1549 48.405 35.0961 52.7625 34.2124 58.5725C33.5911 62.685 31.3949 84.9712 30.8699 85.7674C30.3449 86.5637 20.1336 96.4162 19.6086 96.8537C19.0836 97.2912 17.8849 98.315 18.9524 99.54C19.8361 100.555 21.3761 99.4962 22.0761 98.7962C22.7761 98.0962 33.5649 87.8325 33.9586 87.0887C34.6586 85.7675 37.2136 62.4487 37.4761 60.7775C37.7386 59.1062 38.7974 53.2962 39.3661 53.165C40.1099 52.99 44.1611 58.3975 44.1611 58.3975L47.4161 56.4637C47.4161 56.4637 47.7399 50.3825 48.3436 50.26C48.9999 50.1287 51.3799 54.9675 51.3799 54.9675L65.3799 46.0775Z" fill="#848484"/>
<path d="M31.8493 59.4563C31.8493 59.4563 29.2505 61.3025 18.2955 62.1425C14.3405 62.44 9.0993 61.0838 6.41305 60.0775C4.33055 59.29 3.77055 58.3188 3.77055 58.3188C3.77055 58.3188 4.1643 56.4725 2.75555 56.4725C1.2068 56.4725 1.39055 58.4938 2.05555 59.3338C2.7118 60.1738 4.4793 61.6438 7.28805 62.545C10.4555 63.56 14.2005 64.155 18.5493 63.9538C26.2493 63.6038 31.3506 61.6175 31.3506 61.6175L31.8493 59.4563Z" fill="#848484"/>
<path d="M52.885 52.2374C52.885 52.2374 54.1625 47.7049 57.4613 45.9899C60.76 44.2749 68.6788 42.5599 73.8325 41.5012C78.9863 40.4424 93.24 38.1149 98.385 37.8087C105.779 37.3712 107.083 38.9899 107.319 40.7137C107.538 42.2974 106.041 45.9899 99.2688 48.1074C93.5288 49.8924 75.4075 54.5387 72.4325 55.2387C70 55.8074 66.2375 56.7524 63.455 56.6474C60.6725 56.5337 59.0013 57.6624 59.3163 57.5312L57.995 58.9399L54.3025 62.5012L52.85 65.1437L49.945 65.4062L47.04 61.7137L45.5875 64.8812L44.0913 64.7499C44.0913 64.7499 43.785 67.8737 40.4425 69.6324C37.7563 71.0412 34.895 70.3762 34.895 70.3762C34.895 70.3762 29.7063 74.3399 27.1075 76.0987C24.8938 77.5949 20.51 80.4562 19.7138 81.5149C18.9175 82.5737 16.6513 88.6024 15.8375 90.7987C14.8225 93.5287 13.7725 96.3899 11.9175 95.6374C9.8088 94.7799 10.8063 92.0587 12.2238 87.8062C14.1138 82.1274 14.91 79.3537 16.8875 77.6387C18.8738 75.9062 31.0625 67.3749 31.0625 67.3749C31.0625 67.3749 28.1575 59.7187 33.5738 57.0762C38.5613 54.6437 41.6238 57.4262 41.6238 57.4262C41.6238 57.4262 42.0175 53.3749 45.9813 52.3249C49.945 51.2749 52.885 52.2374 52.885 52.2374Z" fill="#5E6467"/>
<path d="M57.7501 50.7237C57.5576 52.7625 58.4501 55.475 66.9026 53.8912C76.1863 52.15 94.9376 47.5125 98.0526 46.6725C102.384 45.5087 106.339 42.6912 105.639 40.6612C104.939 38.64 97.8951 39.0337 87.5788 40.775C78.1988 42.3587 69.2738 44.2925 66.0188 45.1762C62.7638 46.06 58.1001 46.935 57.7501 50.7237Z" fill="url(#paint0_radial)"/>
<path d="M32.3315 62.405C33.0052 63.4987 30.7039 64.295 28.3677 65.0475C26.0314 65.8 19.084 67.9962 11.6464 67.865C5.99395 67.7687 3.19395 65.8437 2.14395 65.0475C1.09395 64.2512 -0.647301 62.0812 0.997699 61.355C2.58145 60.655 2.7127 63.3325 2.7127 63.3325C2.7127 63.3325 4.9527 65.8437 11.4714 66.0625C17.9902 66.2812 27.3527 63.7262 29.1115 63.0262C30.879 62.3175 31.9815 61.8275 32.3315 62.405Z" fill="#848484"/>
<path d="M41.4398 66.01C40.6523 67.7775 38.6923 68.2763 36.9773 67.515C35.2623 66.7538 34.7023 65.17 35.1486 63.2888C35.5773 61.4513 38.0361 60.2525 40.0311 61.0925C42.1486 61.9588 42.2273 64.2425 41.4398 66.01Z" fill="#020204"/>
<path d="M52.8856 52.2374C52.8856 52.2374 52.3168 51.7999 52.6406 50.5399C52.9731 49.2887 57.8556 43.2774 61.5481 39.1212C65.2406 34.9649 79.3018 19.9849 81.2181 18.2612C83.1343 16.5462 87.2206 12.4512 89.3381 14.2974C91.0968 15.8374 89.6006 18.7162 88.8131 19.9762C88.0256 21.2362 86.3018 23.5374 86.3018 23.5374L52.8856 52.2374Z" fill="#77A8AF" fill-opacity="0.65"/>
<path d="M58.3183 57.1463C58.3183 57.1463 65.2483 52.5263 68.8096 49.3588C72.3708 46.1913 91.0258 30.4413 92.6183 28.9188C94.2021 27.405 98.1221 22.96 96.2671 20.7113C94.4121 18.4625 90.2646 21.1925 88.2608 22.3213C86.5546 23.275 86.2396 23.6163 86.2396 23.6163L52.8846 52.2375C52.8846 52.2375 55.5358 53.3225 56.4021 54.2413C57.5221 55.4313 58.3183 57.1463 58.3183 57.1463Z" fill="#5A8D91" fill-opacity="0.65"/>
<path d="M40.6966 88.2262C40.1016 89.4775 35.0179 94.2987 33.1716 96.0137C31.3254 97.7287 27.2304 101.561 26.5741 102.086C25.9179 102.611 24.8504 103.775 26.0491 104.86C27.0204 105.744 28.7354 104.44 29.4179 103.801C30.3454 102.944 33.5741 100.17 36.2166 97.7287C38.4829 95.6375 43.4791 90.5975 43.8729 89.6787C44.2666 88.7512 47.7316 64.1112 48.3616 64.2687C48.6241 64.3387 49.2366 66.7712 49.4816 67.5062C49.9454 68.8887 50.8204 69.16 51.4854 68.915C52.4216 68.5737 52.4129 67.2875 52.4129 67.2875C52.4129 67.2875 52.5441 68.285 53.6466 68.495C55.0291 68.7575 55.3179 67.8562 55.5629 66.71C56.0266 64.5312 56.1579 62.8162 56.6829 62.8162C57.2079 62.8162 57.3391 66.71 57.6716 70.4025C58.0042 74.095 58.6604 83.405 59.2554 84C59.8504 84.595 64.7679 90.6937 67.8391 93.9662C70.8754 97.2037 76.5541 103.136 77.2804 103.801C78.0066 104.457 79.4591 104.991 79.9841 104.457C80.5091 103.924 80.1154 102.672 79.1266 101.552C78.2866 100.599 72.0654 93.24 70.2804 91.3237C68.4954 89.4075 62.6241 82.8712 62.2304 82.0837C61.8366 81.2875 60.1216 60.7687 60.1216 60.7687C60.1216 60.7687 64.2779 54.8275 64.9429 54.8275C65.5991 54.8275 72.9316 63.0087 74.8391 65.45C76.7554 67.8912 84.5429 77.7262 85.3304 78.0587C86.1179 78.3912 94.0104 81.9787 97.5366 83.6062C102.419 85.8462 108.623 88.5587 109.288 88.8212C109.944 89.0837 110.889 88.9262 111.204 88.3575C111.537 87.7625 111.274 86.7037 109.227 85.715C107.975 85.1112 98.6654 80.3687 97.1516 79.5812C95.6379 78.785 88.2441 75.5562 87.6491 75.1625C87.0541 74.7687 79.0041 65.3275 76.9566 62.6237C74.9091 59.92 67.5854 51.8612 67.0604 51.3362C66.5354 50.8112 65.9404 49.6825 64.6191 49.8837C63.4379 50.0587 62.3529 51.8 61.2416 53.1737C59.5179 55.3087 58.0829 57.6012 58.0829 57.6012C58.0829 57.6012 56.8316 56.4812 55.1166 57.2687C53.4016 58.065 52.2816 64.4 52.2816 64.4C52.2816 64.4 50.9691 61.1625 50.6279 60.5062C49.7704 58.8525 48.7116 57.8025 47.2591 58.3275C45.8066 58.8525 45.1504 60.7075 44.6866 63.28C44.1966 65.8525 41.2916 86.975 40.6966 88.2262Z" fill="#848484"/>
<defs>
<radialGradient id="paint0_radial" cx="0" cy="0" r="1" gradientUnits="userSpaceOnUse" gradientTransform="translate(74.9672 49.9736) rotate(-5.0025) scale(28.4386 15.9292)">
<stop offset="0.005" stop-color="#745963" stop-opacity="0"/>
<stop offset="0.364" stop-color="#894B51" stop-opacity="0.36"/>
<stop offset="1" stop-color="#AA3535"/>
</radialGradient>
</defs>
</svg>
