<svg width="108" height="108" viewBox="0 0 108 108" fill="none" xmlns="http://www.w3.org/2000/svg">
<g clip-path="url(#clip0)">
<path d="M90 108H18C17.2044 108 16.4413 107.684 15.8787 107.121C15.3161 106.559 15 105.796 15 105C15 104.204 15.3161 103.441 15.8787 102.879C16.4413 102.316 17.2044 102 18 102H90C97.626 102 102 97.899 102 90.75C102 86.139 97.071 81 90 81H69C68.2044 81 67.4413 80.6839 66.8787 80.1213C66.3161 79.5587 66 78.7956 66 78C66 77.2044 66.3161 76.4413 66.8787 75.8787C67.4413 75.3161 68.2044 75 69 75H90C100.767 75 108 83.145 108 90.75C108 101.229 100.935 108 90 108Z" fill="#EA596E"/>
<path d="M36 73.4998C36 64.3888 46.812 55.6858 39 50.9998C28.779 44.8678 18.363 63.8788 12 65.9998C3 68.9998 0 76.2207 0 80.9997C0 86.5137 5.958 86.1747 15 86.9997C20.718 87.5247 31.782 87.3747 42 89.9997C50.826 92.2677 36 82.6137 36 73.4998Z" fill="#66757F"/>
<path d="M99 70.5C99 45 87.741 33 72 33C42 33 30 54 30 75C30 90.741 50.259 93 66 93C81.741 93 99 86.241 99 70.5Z" fill="#66757F"/>
<path d="M29.343 53.5319C29.343 45.7499 22.218 43.8749 25.779 38.4389C27.897 35.2049 33.543 36.5339 34.932 36.6929C34.821 40.6889 39.747 42.3179 41.094 39.8399C42.228 40.9559 43.224 42.3299 43.98 43.9229C46.722 49.6919 42.597 57.3929 38.106 59.5259C33.624 61.6589 29.343 59.9219 29.343 53.5319Z" fill="#66757F"/>
<path d="M40.8994 48.4202C41.1514 52.2572 39.4564 56.4302 36.7114 57.1652C33.9694 57.9032 32.8804 54.9812 31.8874 51.2822C30.8944 47.5832 29.0374 43.2242 31.7794 42.4862C34.5244 41.7482 40.5724 43.4372 40.8994 48.4202Z" fill="#E6AAAA"/>
<path d="M24 72C25.6568 72 27 70.6569 27 69C27 67.3431 25.6568 66 24 66C22.3431 66 21 67.3431 21 69C21 70.6569 22.3431 72 24 72Z" fill="#292F33"/>
<path d="M31.7817 54.9361C28.0017 49.7851 23.2797 49.0051 18.3117 48.9991C16.1247 48.9991 16.2507 50.4361 17.9997 50.6251C21.2277 50.9701 23.8887 51.8431 24.2307 52.6261C24.4587 53.1511 22.1247 52.5001 19.9377 52.5001C16.4367 52.5001 16.8117 53.3941 19.4367 54.0631C25.0617 55.5001 24.9357 57.7201 28.1247 57.6271C31.3137 57.5281 31.7817 54.9361 31.7817 54.9361ZM79.3257 33.9751C74.3757 32.1271 67.4997 27.2521 60.7497 28.0021C58.4967 28.2511 59.3637 29.5591 60.7497 29.8771C62.5767 30.3001 65.0637 31.9891 65.9427 32.6761C66.7857 33.3331 59.0007 31.0021 53.7477 33.0031C51.1317 33.9991 52.2057 34.6891 53.8407 34.5031C56.2887 34.2211 58.6677 35.0191 61.7637 36.8941C64.8567 38.7661 82.5597 35.1811 79.3257 33.9751Z" fill="#66757F"/>
</g>
<defs>
<clipPath id="clip0">
<rect width="108" height="108" fill="white"/>
</clipPath>
</defs>
</svg>
