<svg width="106" height="100" viewBox="0 0 106 100" fill="none" xmlns="http://www.w3.org/2000/svg">
<path d="M45.7211 49.5781L62.6149 49.75C62.6149 49.75 64.2214 51.3203 65.6955 49.8047C67.1778 48.2891 75.5585 40.3828 76.6681 39.3359C77.7778 38.2891 79.3844 36.6016 80.8585 36.6016C82.3325 36.6016 88.5021 41.1953 91.3425 43.2891C93.3631 44.7813 98.4975 48.9922 99.8474 49.3359C101.205 49.6875 104.535 50.2656 104.535 51.6641C104.535 53.0625 99.8474 52.5938 98.4892 52.4766C97.1311 52.3594 89.2391 47.3594 88.0052 46.6563C86.7713 45.9609 82.9453 43.2266 82.2083 43.2266C81.4713 43.2266 70.863 53.0547 70.863 53.0547C70.863 53.0547 77.5211 50.8438 79.3678 50.1484C81.2145 49.4531 83.1938 48.6328 84.1792 48.75C85.1647 48.8672 92.0713 56.0781 93.181 57.0078C94.2906 57.9375 97.8681 61.1953 98.8536 61.7813C99.8391 62.3594 106.009 64.8047 105.263 66.3203C104.518 67.8359 96.9406 65.5547 95.6819 64.9609C94.1995 64.2656 90.2577 61.7031 87.8727 59.2188C87.2267 58.5469 83.9225 55.2656 82.8128 55.0313C81.7031 54.7969 69.861 59.1641 69.861 59.1641C69.861 59.1641 78.2499 58.6406 79.5997 59.3359C80.9578 60.0313 84.8997 68.2031 85.645 69.8672C86.6305 72.0781 89.7111 79.1172 90.7049 80.2813C91.6903 81.4453 95.3921 84.4688 94.2824 85.8672C93.1727 87.2656 88.4275 83.8281 87.558 82.6641C86.6967 81.5 83.7155 78.1875 79.6411 70.8594C78.3244 68.4844 76.6433 65.2734 75.898 64.8125C75.161 64.3438 67.8817 65.5078 67.8817 65.5078C67.8817 65.5078 67.1447 70.9766 67.3849 72.7188C67.6333 74.4609 70.9624 88.7734 71.5752 91.6797C72.188 94.5859 72.188 95.9844 71.0783 96.3359C69.9686 96.6875 68.6105 95.5234 67.1281 92.2656C66.3911 90.6406 61.9938 78.8828 61.3975 77.3203C60.2878 74.4141 60.5942 69.4688 60.5942 69.4688L36.1149 65.6328C36.1149 65.6328 32.968 65.75 32.4794 66.5625C31.9825 67.375 29.7052 77.1484 29.0841 79.125C28.4713 81.1016 23.9663 88.8984 23.4694 89.4766C22.9725 90.0547 21.78 91.7734 20.3888 90.2891C19.4033 89.2422 21.3742 86.5625 21.9953 84.3594C21.9953 84.3594 23.6019 80.8672 23.842 78.6563C24.0905 76.4453 25.7633 63.4688 26.4341 62.6016C27.4195 61.3203 30.8728 60.0391 30.8728 60.0391C30.8728 60.0391 28.347 59.1094 26.8067 58.5859C25.7053 58.2109 23.6019 57.5391 23.3535 57.5938C22.7075 57.7422 18.7905 63.7578 17.1839 65.8516C15.5774 67.9453 9.90471 73.875 9.16767 74.3438C8.43064 74.8125 6.57564 75.625 5.83861 74.2266C5.10158 72.8281 7.07252 71.7813 8.18221 70.3906C9.29189 68.9922 13.6064 62.8281 14.9645 60.6172C16.3227 58.4063 20.1403 51.1953 21.3742 50.7266C22.6081 50.2578 30.5002 53.75 30.5002 53.75C30.5002 53.75 26.0614 50.2969 24.2147 48.9063C22.368 47.5078 20.9022 45.3984 19.9416 45.7266C18.981 46.0547 14.476 50.2031 12.505 51.7188C10.5341 53.2344 5.73924 56.1953 4.24033 56.7813C2.45158 57.4766 0.911267 57.0156 0.66283 56.0859C0.414392 55.1563 3.86767 52.9453 6.4597 50.8516C9.05174 48.7578 12.3394 44.9688 14.1033 43.3516C16.3227 41.3125 18.4178 39.2109 19.5275 38.4453C21.6641 36.9688 34.0777 48.5313 34.0777 48.5313C34.0777 48.5313 27.5438 39.9219 26.1856 38.1797C24.8275 36.4375 23.7178 34.3438 23.3535 33.5234C22.9808 32.7109 22.6164 31.0781 23.9663 30.1484C25.3244 29.2188 27.1711 29.2188 29.142 31.7734C30.7403 33.8438 42.9552 49.4531 42.9552 49.4531L45.7211 49.5781Z" fill="#868686"/>
<path d="M63.8071 50.9375C63.8071 50.9375 76.2207 41.2422 76.0551 28.6797C75.8895 16.1172 65.9934 10.3984 58.4657 9.99215C49.9195 9.5234 37.2575 15.2656 36.6778 28.6797C36.1064 42.0937 42.2676 49.2343 42.2676 49.2343C42.2676 49.2343 35.5267 50.5547 34.1271 58.3828C33.299 63.0312 35.5846 72.414 47.1204 74.125C61.7534 76.2968 67.6496 66 67.1776 58.8437C66.8464 53.8828 63.8071 50.9375 63.8071 50.9375Z" fill="#616569"/>
<path d="M51.2031 44.9219C54.2754 44.9922 56.7018 45.4141 58.5982 46.2579C63.1364 48.2735 64.5939 51.7344 64.1301 51.5547C63.1032 51.1485 59.1531 47.3829 50.2756 47.3047C45.4973 47.2657 42.3835 49.3985 41.7707 49.3438C41.249 49.2969 45.7789 44.8047 51.2031 44.9219Z" fill="#4E4D50"/>
<path d="M54.7637 38.3593C54.714 38.3593 54.6726 38.3593 54.6229 38.3515C54.0019 38.2812 53.5547 37.7422 53.6375 37.1562L54.0515 34.0547C54.1261 33.4687 54.6975 33.0547 55.3186 33.125C55.9397 33.1953 56.3869 33.7343 56.304 34.3203L55.89 37.4218C55.8154 37.9609 55.3269 38.3593 54.7637 38.3593Z" fill="#888A8A"/>
<path d="M63.3349 40.625C63.1916 40.6143 63.0515 40.5799 62.9208 40.5235C62.6489 40.3987 62.4404 40.1774 62.341 39.908C62.2417 39.6386 62.2596 39.343 62.3908 39.086L64.0553 35.8594C64.3286 35.3281 65.016 35.1016 65.5791 35.3594C66.1422 35.6172 66.3824 36.2578 66.1091 36.7969L64.4446 40.0235C64.2375 40.4375 63.7904 40.6641 63.3349 40.625Z" fill="#888A8A"/>
<path d="M45.8783 38.5156C45.3318 38.5156 44.8515 38.1484 44.7604 37.6249L44.189 34.4453C44.1384 34.1646 44.2076 33.8765 44.3813 33.6438C44.5551 33.4111 44.8194 33.2527 45.1165 33.2031C45.7376 33.1015 46.3255 33.4921 46.4332 34.0781L47.0046 37.2578C47.0323 37.4123 47.0239 37.5707 46.9801 37.7219C46.9363 37.8731 46.858 38.0134 46.7508 38.1332C46.6436 38.2529 46.51 38.3492 46.3593 38.4152C46.2086 38.4812 46.0445 38.5155 45.8783 38.5156Z" fill="#888A8A"/>
<path d="M50.7306 27.3438C50.1178 27.3438 49.6127 26.8828 49.5961 26.2969L49.5133 23.2734C49.4967 22.6797 49.9936 22.1875 50.623 22.1719C51.2689 22.1797 51.7741 22.625 51.7906 23.2188L51.8734 26.2422C51.89 26.8359 51.3931 27.3281 50.7637 27.3438H50.7306Z" fill="#888A8A"/>
<path d="M61.6701 28.5859C61.497 28.5862 61.326 28.5492 61.1704 28.4776C61.0147 28.4059 60.8785 28.3017 60.7722 28.1727C60.6659 28.0437 60.5923 27.8935 60.557 27.7336C60.5218 27.5737 60.5258 27.4082 60.5687 27.25L61.4714 23.914C61.6287 23.3359 62.2416 22.9922 62.8544 23.1406C63.4672 23.289 63.8315 23.875 63.6742 24.4453L62.7716 27.7812C62.6391 28.2656 62.1753 28.5859 61.6701 28.5859Z" fill="#888A8A"/>
<path d="M47.3765 59.3916C47.5938 57.4739 46.3949 55.7805 44.6986 55.6095C43.0023 55.4384 41.451 56.8544 41.2337 58.7721C41.0164 60.6899 42.2153 62.3832 43.9116 62.5543C45.6079 62.7253 47.1592 61.3094 47.3765 59.3916Z" fill="#050402"/>
<path d="M54.913 63.8125C56.619 63.8125 58.0019 62.249 58.0019 60.3203C58.0019 58.3916 56.619 56.8281 54.913 56.8281C53.2071 56.8281 51.8241 58.3916 51.8241 60.3203C51.8241 62.249 53.2071 63.8125 54.913 63.8125Z" fill="#050402"/>
<path d="M61.2854 61.454C62.4229 61.3444 63.2173 60.0759 63.0598 58.6208C62.9023 57.1657 61.8525 56.0749 60.715 56.1845C59.5775 56.2941 58.7831 57.5625 58.9406 59.0177C59.0981 60.4728 60.1479 61.5636 61.2854 61.454Z" fill="#050402"/>
<path d="M40.767 56.555C41.0763 55.1217 40.4188 53.7853 39.2984 53.5701C38.178 53.3549 37.019 54.3424 36.7096 55.7757C36.4003 57.2089 37.0578 58.5453 38.1782 58.7605C39.2987 58.9757 40.4577 57.9883 40.767 56.555Z" fill="#050402"/>
</svg>
