<svg width="112" height="112" viewBox="0 0 112 112" fill="none" xmlns="http://www.w3.org/2000/svg">
<path d="M67.725 54.25C69.9475 54.25 71.75 56.0525 71.75 58.275C71.75 60.0425 70.63 61.5825 68.95 62.1075C68.9325 62.125 68.8975 62.1425 68.88 62.1425C65.38 63.175 59.5175 64.75 56 64.75C52.4825 64.75 46.62 63.175 43.12 62.1425C43.1025 62.1425 43.0675 62.125 43.05 62.1075C41.37 61.5825 40.25 60.0425 40.25 58.275C40.25 57.155 40.705 56.1575 41.4225 55.4225C42.1575 54.705 43.155 54.25 44.275 54.25H45.5H66.5H67.725Z" fill="#FC6E51"/>
<path d="M56 94.5C63.1925 94.5 70.875 90.8775 74.7425 87.92C71.6625 103.898 56 106.75 56 106.75C56 106.75 40.67 102.568 37.38 87.99C41.2825 90.965 48.895 94.5 56 94.5Z" fill="#FC6E51"/>
<path d="M72.1525 69.2125C73.2725 72.0125 74.2 74.865 74.725 77.5775C71.365 80.675 64.5225 84 56 84C47.4775 84 40.635 80.675 37.275 77.5775C37.8 74.865 38.7275 72.0125 39.8475 69.2125C43.5925 72.065 49.2625 75.25 56 75.25C62.7375 75.25 68.4075 72.065 72.1525 69.2125Z" fill="#FC6E51"/>
<path d="M74.725 77.5775C75.0575 79.205 75.25 80.78 75.25 82.25C75.25 84.2975 75.0575 86.1875 74.7425 87.92C70.875 90.8775 63.1925 94.5 56 94.5C48.895 94.5 41.2825 90.965 37.38 87.99C36.9775 86.24 36.75 84.3325 36.75 82.25C36.75 80.78 36.9425 79.205 37.275 77.5775C40.635 80.675 47.4775 84 56 84C64.5225 84 71.365 80.675 74.725 77.5775Z" fill="#FF826E"/>
<path d="M70.28 64.8725C70.9275 66.29 71.575 67.7425 72.1525 69.2125C68.4075 72.065 62.7375 75.25 56 75.25C49.2625 75.25 43.5925 72.065 39.8475 69.2125C40.425 67.7425 41.0725 66.29 41.72 64.8725C42.1575 63.9275 42.6125 63 43.05 62.1075C43.0675 62.125 43.1025 62.1425 43.12 62.1425C46.62 63.175 52.4825 64.75 56 64.75C59.5175 64.75 65.38 63.175 68.88 62.1425C68.8975 62.1425 68.9325 62.125 68.95 62.1075C69.3875 63 69.8425 63.9275 70.28 64.8725Z" fill="#FF826E"/>
<path d="M66.5 43.75C69.405 43.75 71.75 46.095 71.75 49C71.75 50.4525 71.155 51.765 70.21 52.71C69.265 53.655 67.9525 54.25 66.5 54.25H45.5C42.595 54.25 40.25 51.905 40.25 49C40.25 47.5475 40.845 46.235 41.79 45.29C42.735 44.345 44.0475 43.75 45.5 43.75H56H66.5Z" fill="#FC6E51"/>
<path d="M68.46 22.5225C70.665 25.7775 71.75 29.7325 71.75 33.25C71.75 40.985 64.6975 43.75 56 43.75C47.3025 43.75 40.25 40.985 40.25 33.25C40.25 29.7325 41.335 25.7775 43.54 22.5225C44.5375 21.0175 45.78 19.6525 47.2675 18.5675C49.595 16.835 52.5 15.75 56 15.75C59.5 15.75 62.405 16.835 64.7325 18.5675C66.22 19.6525 67.4625 21.0175 68.46 22.5225Z" fill="#FF826E"/>
<path d="M50.75 5.25C50.75 5.25 47.4425 10.395 47.2675 18.5675C45.78 19.6525 44.5375 21.0175 43.54 22.5225C42.77 21.7 40.25 18.725 40.25 15.75C40.25 8.75 50.75 5.25 50.75 5.25Z" fill="#969FAA"/>
<path d="M71.75 15.75C71.75 18.725 69.23 21.7 68.46 22.5225C67.4625 21.0175 66.22 19.6525 64.7325 18.5675C64.5575 10.395 61.25 5.25 61.25 5.25C61.25 5.25 71.75 8.75 71.75 15.75Z" fill="#969FAA"/>
<path d="M98.5985 66.1308L102.468 68.0645L104.034 64.9338L100.903 63.3675L90.0025 48.832L72.821 51.9575C73.2445 51.058 73.5 50.0605 73.5 49C73.5 46.3628 72.0177 44.0913 69.86 42.8978L86.7422 38.2935L95.844 27.3718L93.156 25.13L84.7578 35.2083L72.2243 38.626C73.059 37.0685 73.5 35.2748 73.5 33.25C73.5 32.0618 73.3635 30.7983 73.1203 29.512C76.1583 28.8505 84 26.5983 84 21C84 11.9403 80.465 4.76877 80.3163 4.46777L77.1838 6.03227C77.217 6.09702 80.5 12.7978 80.5 21C80.5 23.618 75.313 25.4713 72.1945 26.131C71.7728 24.9568 71.2477 23.8035 70.6125 22.694C71.8095 21.1855 73.5 18.5728 73.5 15.75C73.5 7.58277 62.2808 3.75027 61.803 3.59102C61.096 3.35127 60.3225 3.58927 59.8675 4.17727C59.4125 4.76352 59.3775 5.57377 59.7783 6.19852C59.8045 6.23877 61.985 9.69852 62.741 15.386C60.7758 14.5215 58.5445 14 56 14C53.4573 14 51.226 14.5215 49.2625 15.386C50.022 9.73177 52.1973 6.23702 52.2218 6.19852C52.6225 5.57377 52.5875 4.76352 52.1325 4.17727C51.6758 3.58927 50.9023 3.35127 50.197 3.59102C49.7193 3.75027 38.5 7.58277 38.5 15.75C38.5 18.5728 40.1905 21.1855 41.3875 22.694C40.7523 23.8035 40.2273 24.9585 39.8055 26.131C36.687 25.4713 31.5 23.618 31.5 21C31.5 12.796 34.783 6.09702 34.8163 6.03052L31.6838 4.46602C31.535 4.76877 28 11.9403 28 21C28 26.5983 35.8418 28.8505 38.8798 29.512C38.6365 30.7983 38.5 32.0618 38.5 33.25C38.5 35.2748 38.941 37.0685 39.7758 38.6243L27.2423 35.2065L18.844 25.1283L16.156 27.37L25.2578 38.2918L42.14 42.896C39.9823 44.0913 38.5 46.3628 38.5 49C38.5 50.0605 38.7555 51.058 39.179 51.9593L21.9975 48.8338L11.0968 63.3693L7.966 64.9355L9.53225 68.0663L13.4015 66.1325L23.5008 52.668L39.2315 55.5275C38.78 56.3483 38.5 57.2775 38.5 58.282C38.5 60.1283 39.3593 61.7838 40.7453 62.8495C40.6315 63.084 40.516 63.3203 40.4075 63.553L21.3098 72.233L14.343 94.8745L9.947 96.341L11.0548 99.659L17.1588 97.6255L24.192 74.767L38.3075 68.3498C36.1235 73.8063 35 78.4735 35 82.25C35 102.601 55.335 108.383 55.5398 108.439L55.923 108.544L56.3133 108.472C56.5198 108.434 77 104.454 77 82.25C77 78.4735 75.8765 73.8063 73.6943 68.3515L87.8098 74.7688L94.843 97.6273L100.947 99.6608L102.055 96.3428L97.6588 94.8763L90.692 72.2348L71.5943 63.5548C71.484 63.322 71.3685 63.0858 71.2565 62.8513C72.6408 61.782 73.5 60.1283 73.5 58.282C73.5 57.2793 73.22 56.3483 72.7685 55.5258L88.4993 52.6663L98.5985 66.1308ZM67.718 56C68.9762 56 70 57.0238 70 58.282C70 59.3005 69.349 60.179 68.3795 60.466C62.874 62.0988 58.478 63 56 63C53.522 63 49.126 62.0988 43.6205 60.466C42.651 60.179 42 59.3005 42 58.282C42 57.0238 43.0238 56 44.282 56H45.5H66.5H67.718ZM73.5 82.25C73.5 83.9423 73.332 85.4753 73.0905 86.9313C69.5695 89.4565 62.7235 92.75 56 92.75C50.0238 92.75 43.1008 89.9168 38.9935 86.989C38.696 85.5138 38.5 83.9528 38.5 82.25C38.5 81.7775 38.5368 81.27 38.5788 80.7573C42.5548 83.4138 48.601 85.75 56 85.75C63.399 85.75 69.4435 83.4138 73.4212 80.7573C73.4633 81.27 73.5 81.7775 73.5 82.25ZM56 82.25C48.454 82.25 42.4533 79.4955 39.2175 76.8968C39.5745 75.3603 40.0645 73.7118 40.6893 71.953C44.4973 74.494 49.8033 77 56 77C62.1968 77 67.5028 74.494 71.3108 71.953C71.9355 73.7118 72.4255 75.362 72.7825 76.8985C69.5468 79.4955 63.5443 82.25 56 82.25ZM56 73.5C50.2968 73.5 45.381 70.9923 41.9773 68.5983C42.5635 67.193 43.2443 65.7195 43.9723 64.2128C47.9133 65.3345 52.78 66.5 56 66.5C59.22 66.5 64.0868 65.3345 68.0278 64.2128C68.7575 65.7195 69.4365 67.193 70.0228 68.5983C66.619 70.9923 61.7033 73.5 56 73.5ZM64.8042 8.88477C67.2962 10.3915 70 12.7243 70 15.75C70 17.0695 69.2615 18.5203 68.4828 19.6718C67.858 18.9473 67.1738 18.2735 66.4265 17.6558C66.2533 14.112 65.5672 11.1125 64.8042 8.88477ZM70 33.25C70 40.4828 62.3858 42 56 42C49.6143 42 42 40.4828 42 33.25C42 26.7103 46.3435 17.5 56 17.5C65.6565 17.5 70 26.7103 70 33.25ZM42 15.75C42 12.8293 44.6093 10.4528 47.2028 8.86552C46.438 11.095 45.7485 14.1015 45.5735 17.6558C44.8263 18.2735 44.142 18.9473 43.5173 19.6718C42.7385 18.5203 42 17.0695 42 15.75ZM45.5 45.5H66.5C68.4302 45.5 70 47.0698 70 49C70 50.9303 68.4302 52.5 66.5 52.5H45.5C43.5698 52.5 42 50.9303 42 49C42 47.0698 43.5698 45.5 45.5 45.5ZM56.0805 104.946C54.1013 104.302 44.9435 100.882 40.691 92.1043C45.059 94.3845 50.6905 96.25 56 96.25C61.3253 96.25 67.2 94.3163 71.7203 91.889C67.7338 101.715 58.1945 104.458 56.0805 104.946Z" fill="black"/>
</svg>
