<svg width="110" height="108" viewBox="0 0 110 108" fill="none" xmlns="http://www.w3.org/2000/svg">
<g clip-path="url(#clip0)">
<path d="M39.9823 42.2668C35.3561 42.2668 31.4084 40.1994 28.8775 37.7146C25.9443 34.8346 23.1275 34.7395 23.0093 34.7376C22.0361 34.7155 21.2521 33.9287 21.2626 32.9731C21.2731 32.0176 22.0552 31.2498 23.0284 31.2498C23.2035 31.2498 27.3631 31.2957 31.389 35.2485C32.5234 36.3608 38.605 41.6654 46.9811 36.7301C47.8241 36.2329 48.9134 36.5019 49.4183 37.3279C49.9229 38.1539 49.6507 39.2251 48.8094 39.7208C45.7305 41.5344 42.7349 42.2668 39.9823 42.2668Z" fill="#DCAA46"/>
<path d="M46.1209 29.5057C46.0446 29.5057 45.9681 29.5006 45.8901 29.4905C45.1182 29.3918 38.2857 28.4382 35.8365 25.3452C34.5094 23.671 33.8105 21.8352 33.2485 20.3586C32.9901 19.6792 32.6362 18.7492 32.428 18.5294C31.3508 17.4734 27.9251 16.089 26.0188 15.464C25.0892 15.1607 24.586 14.1731 24.8965 13.2587C25.2069 12.346 26.2044 11.8503 27.1427 12.1568C27.729 12.3474 32.9275 14.0879 34.9413 16.0654C35.6838 16.7944 36.0982 17.8807 36.5769 19.1377C37.0781 20.4559 37.647 21.9512 38.6394 23.2029C39.7546 24.6113 43.8205 25.7048 46.3497 26.0333C47.3229 26.1592 48.0061 27.0348 47.8796 27.9884C47.7618 28.8672 47.0004 29.5057 46.1209 29.5057Z" fill="#DCAA46"/>
<path d="M51.446 13.8105C50.6047 13.8105 49.8589 13.223 49.701 12.3833C49.6768 12.2658 48.5284 6.70696 43.5831 4.46765C38.9032 2.34225 32.2839 3.65364 23.9095 8.34889C23.0559 8.8273 21.9718 8.53452 21.4863 7.69984C20.999 6.86368 21.2955 5.79909 22.1474 5.32068C31.6024 0.0158225 39.3249 -1.33143 45.1167 1.32026C51.7549 4.35522 53.1392 11.4533 53.1948 11.7549C53.3718 12.7018 52.7316 13.6095 51.7655 13.7816C51.6578 13.8018 51.5519 13.8105 51.446 13.8105Z" fill="#6B676E"/>
<path d="M40.7904 107.982C40.5996 107.982 40.4054 107.951 40.2144 107.889C39.2863 107.575 38.7921 106.584 39.1094 105.673C40.1067 102.819 34.1468 84.8123 24.9379 62.8565C23.9406 60.4756 27.7496 49.3666 29.5345 46.7508C29.7964 46.3675 30.5926 45.201 31.9092 45.201C34.1431 45.201 37.1181 46.8596 40.8873 48.9578C44.8541 51.1668 49.3484 53.6719 52.3354 53.6719C53.3172 53.6719 54.1117 54.4519 54.1117 55.4159C54.1117 56.3799 53.3172 57.1597 52.3354 57.1597C48.4117 57.1597 43.4821 54.4144 39.1335 51.9909C36.672 50.62 33.9175 49.0855 32.4207 48.7532C30.9411 50.8719 28.1954 59.7736 28.2837 61.6727C34.4136 76.3003 44.3407 101.454 42.4709 106.804C42.218 107.527 41.5277 107.982 40.7904 107.982Z" fill="#DCAA46"/>
<path d="M70.0179 42.2668C74.6441 42.2668 78.5919 40.1994 81.1227 37.7146C84.056 34.8346 86.8728 34.7395 86.991 34.7376C87.9642 34.7155 88.7482 33.9287 88.7376 32.9731C88.7271 32.0176 87.9451 31.2498 86.9718 31.2498C86.7967 31.2498 82.6372 31.2957 78.6112 35.2485C77.4768 36.3608 71.3953 41.6654 63.0192 36.7301C62.1761 36.2329 61.0869 36.5019 60.582 37.3279C60.0773 38.1539 60.3495 39.2251 61.1909 39.7208C64.2694 41.5344 67.2649 42.2668 70.0179 42.2668Z" fill="#DCAA46"/>
<path d="M63.8791 29.5057C63.9554 29.5057 64.0319 29.5006 64.1099 29.4905C64.8818 29.3918 71.7143 28.4382 74.1635 25.3452C75.4906 23.671 76.1894 21.8352 76.7515 20.3586C77.0099 19.6792 77.3638 18.7492 77.572 18.5294C78.6492 17.4734 82.0749 16.089 83.9812 15.464C84.911 15.1607 85.414 14.1731 85.1035 13.2587C84.7931 12.346 83.7955 11.8503 82.8573 12.1568C82.271 12.3474 77.0724 14.0879 75.0587 16.0654C74.3162 16.7944 73.9018 17.8807 73.4231 19.1377C72.9219 20.4559 72.353 21.9512 71.3606 23.2029C70.2454 24.6113 66.1795 25.7048 63.6503 26.0333C62.6771 26.1592 61.9939 27.0348 62.1204 27.9884C62.2382 28.8672 62.9996 29.5057 63.8791 29.5057Z" fill="#DCAA46"/>
<path d="M58.554 13.8105C59.3954 13.8105 60.1411 13.223 60.299 12.3833C60.3233 12.2658 61.4716 6.70696 66.4169 4.46765C71.0968 2.34225 77.7161 3.65364 86.0905 8.34889C86.9441 8.8273 88.0282 8.53452 88.5137 7.69984C89.001 6.86368 88.7045 5.79909 87.8526 5.32068C78.3976 0.0158225 70.6753 -1.33143 64.8835 1.32026C58.2453 4.35522 56.8611 11.4533 56.8054 11.7549C56.6284 12.7018 57.2686 13.6095 58.2348 13.7816C58.3424 13.8018 58.4481 13.8105 58.554 13.8105Z" fill="#6B676E"/>
<path d="M67.5287 106.804C65.6587 101.454 75.5858 76.3004 81.7159 61.673C81.8042 59.7741 79.0585 50.8721 77.5789 48.7535C76.082 49.0855 73.3275 50.6201 70.8661 51.9912C66.5174 54.4146 61.5879 57.16 57.6642 57.16C56.6823 57.16 55.8881 56.3799 55.8881 55.4161C55.8881 54.4524 56.6826 53.6721 57.6642 53.6721C60.6511 53.6721 65.1454 51.167 69.1123 48.9581C72.8817 46.8599 75.8565 45.2013 78.0904 45.2013C79.407 45.2013 80.2032 46.368 80.4651 46.751C82.25 49.3669 86.0589 60.4759 85.0616 62.8567C75.8526 84.8125 69.8928 102.819 70.8901 105.673C71.2077 106.584 70.7131 107.576 69.7852 107.889C69.5944 107.952 69.4002 107.983 69.2092 107.983C68.4723 107.982 67.7818 107.528 67.5287 106.804Z" fill="#DCAA46"/>
<path d="M61.217 19.0421H48.7836C46.3311 19.0421 44.343 17.0903 44.343 14.6822C44.343 12.2744 46.3309 10.3224 48.7836 10.3224H61.217C63.6694 10.3224 65.6576 12.2742 65.6576 14.6822C65.6573 17.0903 63.6694 19.0421 61.217 19.0421Z" fill="#585661"/>
<path d="M67.4337 32.9935C67.4337 24.3251 61.8671 17.2983 55.0003 17.2983C48.1335 17.2983 42.5669 24.3253 42.5669 32.9935C42.5669 40.5061 46.751 46.7774 52.336 48.3185V55.6646H57.6648V48.3185C63.2496 46.7779 67.4337 40.5063 67.4337 32.9935Z" fill="#585661"/>
<path d="M55.0001 17.2983C48.1333 17.2983 42.5667 24.3253 42.5667 32.9935C42.5667 34.6954 42.7878 36.3304 43.1848 37.8647C46.6447 39.1923 50.6764 39.9692 55.0001 39.9692C59.3238 39.9692 63.3556 39.1923 66.8154 37.8647C67.2125 36.3304 67.4335 34.6954 67.4335 32.9935C67.4337 24.3255 61.8672 17.2983 55.0001 17.2983Z" fill="#6B676E"/>
<path d="M45.8714 17.9499C46.6633 16.0107 47.7303 14.3462 48.9935 13.0726C50.0897 11.9673 49.1267 10.0807 47.608 10.4764C47.5506 10.4911 47.4933 10.5074 47.4357 10.5245C46.0607 10.9354 44.9386 12.0344 44.5358 13.3888C43.9937 15.2117 44.6447 16.895 45.8714 17.9499Z" fill="#FFD750"/>
<path d="M69.2098 66.1281C69.2098 85.3114 62.8479 101.007 55.0001 101.007C47.1523 101.007 40.7903 85.5293 40.7903 66.1281C40.7903 56.4967 47.1523 53.9208 55.0001 53.9208C62.8479 53.9208 69.2098 56.4965 69.2098 66.1281Z" fill="#6B676E"/>
<path d="M38.8321 33.1724C37.4998 36.6603 17.3557 100.302 24.6223 106.417C28.7667 109.905 31.0612 106.853 31.7272 104.673C32.3932 102.494 44.1606 33.1726 44.1606 33.1726C44.1606 33.1726 40.1643 29.6846 38.8321 33.1724Z" fill="#FFDEB7"/>
<path d="M64.129 17.9499C65.3558 16.895 66.0068 15.2117 65.4647 13.3888C65.0619 12.0341 63.9397 10.9356 62.5647 10.5245C62.507 10.5072 62.4498 10.4911 62.3924 10.4764C60.8737 10.0807 59.9106 11.9675 61.0067 13.0726C62.2704 14.3462 63.3371 16.0103 64.129 17.9499Z" fill="#FFD750"/>
<path d="M45.3659 30.3936C44.5635 29.1825 42.5796 29.0522 40.9348 30.1027C39.29 31.1531 38.6071 32.9865 39.4095 34.1977C40.212 35.4089 42.1959 35.5392 43.8407 34.4887C45.4855 33.4382 46.1684 31.6048 45.3659 30.3936Z" fill="#D2B49B"/>
<path d="M71.1864 33.1547C72.5186 36.6426 92.6628 100.284 85.3961 106.399C81.2518 109.887 78.9573 106.835 78.2913 104.656C77.6253 102.476 65.8578 33.1549 65.8578 33.1549C65.8578 33.1549 69.8542 29.6669 71.1864 33.1547Z" fill="#FFDEB7"/>
<path d="M64.6526 30.3793C63.8502 31.5905 64.5331 33.4239 66.1779 34.4744C67.8227 35.5248 69.8066 35.3946 70.609 34.1834C71.4114 32.9722 70.7286 31.1388 69.0838 30.0883C67.439 29.0379 65.4551 29.1681 64.6526 30.3793Z" fill="#D2B49B"/>
<path d="M40.8043 65.7993C40.8026 65.9121 40.7903 66.0132 40.7903 66.1279C40.7903 68.4947 40.8883 70.8008 41.0688 73.0298C45.243 74.1693 49.9538 74.8477 55.0001 74.8477C60.0285 74.8477 64.76 74.2035 68.9249 73.0726C69.111 70.8264 69.2098 68.5046 69.2098 66.1282C69.2098 66.0081 69.1971 65.9018 69.1952 65.7837C63.1267 67.2155 58.1269 69.6561 55.0001 72.6978C51.8754 69.658 46.8683 67.2309 40.8043 65.7993Z" fill="#FFD750"/>
<path d="M55.0001 62.6403C50.1015 62.6403 45.7036 61.2536 42.4958 59.0474C41.7391 60.2771 41.2265 61.7908 40.9747 63.5979C44.8638 65.1782 49.7154 66.1281 55.0001 66.1281C60.2827 66.1281 65.1354 65.1799 69.0262 63.6021C68.777 61.8109 68.2704 60.3098 67.5253 59.0864C64.3136 61.282 59.8885 62.6403 55.0001 62.6403Z" fill="#FFD750"/>
<path d="M46.5322 94.13C48.8987 98.4378 51.8227 101.007 55.0001 101.007C58.1611 101.007 61.0711 98.4291 63.4314 94.134C59.7773 94.4494 56.6943 95.5386 55.0001 97.0405C53.3002 95.5334 50.2026 94.4416 46.5322 94.13Z" fill="#FFD750"/>
<path d="M55.0001 91.8712C52.4931 89.3054 48.3645 87.3055 43.3799 86.2232C44.0412 88.5266 44.8137 90.6142 45.6778 92.4559C48.5209 93.1632 51.6692 93.5682 55.0001 93.5682C58.3132 93.5682 61.4495 93.1712 64.2826 92.4718C65.1521 90.6223 65.9285 88.523 66.5946 86.2141C61.6222 87.303 57.5039 89.309 55.0001 91.8712Z" fill="#FFD750"/>
<path d="M55.0001 83.1611C52.0179 80.0669 47.2144 77.5995 41.3904 76.1806C41.7159 78.8603 42.1742 81.3875 42.7364 83.7479C46.4451 84.7442 50.5982 85.3114 55.0001 85.3114C59.3896 85.3114 63.5337 84.7486 67.2372 83.7595C67.8067 81.3878 68.2727 78.8533 68.6027 76.1698C62.7789 77.59 57.983 80.0667 55.0001 83.1611Z" fill="#FFD750"/>
</g>
<defs>
<clipPath id="clip0">
<rect width="110" height="108" fill="white"/>
</clipPath>
</defs>
</svg>
